<svg id="Layer_1" data-name="Layer 1" xmlns="http://www.w3.org/2000/svg" viewBox="0 0 211 44"><defs><style>.cls-1{fill:#fff;}</style></defs><title>University of Cambridge Logo White</title><path class="cls-1" d="M59.54.81v.54h-.36c-.53,0-1.42,0-1.42,1.66V9.83C57.76,14,56,16,52.21,16,48,16,46,14.35,46,10.74V3c0-1.66-.9-1.66-1.69-1.66h-.17V.81h6.3v.54H50.3c-.78,0-1.75,0-1.75,1.66v7.38c0,3.18,1.33,4.73,4.06,4.73s4.06-1.67,4.06-4.81V3c0-1.66-.92-1.66-1.59-1.66h-.34V.81h4.8"/><path class="cls-1" d="M66.35,15.16v.54H61v-.54h.21c1.75,0,2-1.33,2-2.83V3.38a1.81,1.81,0,0,0-2-2H61V.81h4.19l9,11.1V3.47c0-1.91-1.33-2.12-1.9-2.12H72V.81h5.37v.54h-.23c-.94,0-1.95.22-1.95,2.83v11.6h-.79L64.12,3.36v9c0,1.5.21,2.84,2,2.84"/><path class="cls-1" d="M94.88,12.55l3.28-9.16c.58-1.56.21-2-1.15-2h-.27V.81H101v.54h-.1c-.45,0-1,.14-1.4,1.17l-5,13.24h-1L88.18,2.64a1.64,1.64,0,0,0-1.83-1.29h-.13V.81h6.16v.54H92c-1.06,0-1.26.66-1,1.47Z"/><path class="cls-1" d="M122,.81C125.32.81,127,2,127,4.52a4.1,4.1,0,0,1-3,3.72l-.09,0,3.65,5.56a2.31,2.31,0,0,0,2.07,1.31v.55h-3.81l-4.44-7h-1.64v4.64c0,1.68.74,1.81,1.8,1.81h.29v.54h-6.47v-.54h.29c.73,0,1.57-.33,1.57-1.25V3.08c0-1.73-1-1.73-1.57-1.73h-.29V.81H122m-2.29.7V8.1H121c2.32,0,3.34-1,3.34-3.45a3,3,0,0,0-3.17-3.23A10.91,10.91,0,0,0,119.74,1.51Z"/><path class="cls-1" d="M137.5,12.88c0-1.82-1.55-2.53-3-3.29-1.69-.88-3.65-1.8-3.65-4.55s2-4.38,4.92-4.38a17.06,17.06,0,0,1,3.11.36l.21,2.9-.56.08c-.26-1.53-1.05-2.7-2.77-2.7A2.61,2.61,0,0,0,133,4.07c0,1.68,1.55,2.37,3,3.1,1.77.89,3.8,1.81,3.8,4.59,0,3.07-2.73,4.44-5.27,4.44a7.43,7.43,0,0,1-3.52-.84l-.36-3.22.54-.1c.41,2.14,1.77,3.38,3.56,3.38a2.53,2.53,0,0,0,2.81-2.54"/><path class="cls-1" d="M148.13.81v.54h-.21c-.85,0-1.63.16-1.63,1.32V13.84c0,1.16.78,1.32,1.63,1.32h.21v.54h-6.22v-.54h.21c.85,0,1.63-.16,1.63-1.32V2.67c0-1.16-.78-1.32-1.63-1.32h-.21V.81h6.22"/><path class="cls-1" d="M85.36.81v.54h-.21c-.85,0-1.64.16-1.64,1.32V13.84c0,1.16.79,1.32,1.64,1.32h.21v.54H79.14v-.54h.21c.84,0,1.63-.16,1.63-1.32V2.67c0-1.16-.79-1.32-1.63-1.32h-.21V.81h6.22"/><path class="cls-1" d="M209.34,22.32l0,3.95-.63.16c-.15-1.72-.54-3.13-3.3-3.13h-3.72v7.3h3.19c1.57,0,2-.87,2.17-2.38h.63v6.11h-.63c-.1-1.46-.44-2.6-2.15-2.6h-3.21v6.42c0,1.86,1.61,1.86,3.31,1.86,3.06,0,4.47-.19,5.32-3.28.13,0,.63.14.63.14L210.15,41H196.28v-.68h.26c1.07,0,2.05-.2,2.05-1.65v-14c0-1.45-1-1.65-2.05-1.65h-.26v-.68h13.06"/><path class="cls-1" d="M133.76,22.32c4.14,0,6.19,1.52,6.19,4.66,0,2.65-2.08,4-3.71,4.66l-.12.05,4.58,7a2.85,2.85,0,0,0,2.59,1.63V41h-4.78L133,32.23h-2.06v5.82c0,2.11.93,2.27,2.26,2.27h.37V41h-8.13v-.68h.37c.91,0,2-.41,2-1.57V25.17c0-2.17-1.28-2.17-2-2.17h-.37v-.68h8.37m-2.87.88v8.27h1.59c2.91,0,4.2-1.3,4.2-4.33a3.78,3.78,0,0,0-4-4.06A12,12,0,0,0,130.89,23.2Z"/><path class="cls-1" d="M152.24,22.31V23H152c-1.06,0-2,.2-2,1.65v14c0,1.45,1,1.65,2,1.65h.27V41h-7.81v-.68h.27c1.06,0,2-.2,2-1.65v-14c0-1.45-1-1.65-2-1.65h-.27v-.69h7.81"/><path class="cls-1" d="M151.36.81h9.86c.49,0,1.13-.13,1.23-.77h.48l-.38,3.89H162c0-.9-.16-2.2-1.6-2.2h-3v11.5c0,1.79.86,1.94,1.82,1.94h.32v.54h-6.79v-.54h.32c1.13,0,1.82-.09,1.82-1.9V1.72h-3c-1.55,0-1.7.68-2,2.18h-.54l.35-3.83h.43a1.15,1.15,0,0,0,1.26.74"/><path class="cls-1" d="M178.17.81v.55a2.38,2.38,0,0,0-1.77,1.18l-3.78,5.83v4.76c0,1.89.69,2,1.82,2h.32v.54H168v-.54h.31c1.19,0,1.83-.3,1.83-1.86V8.72L166,2.86c-.63-.91-1.1-1.51-2.09-1.51h-.13V.81h6.16v.54h-.19c-1.18,0-1.27.63-.77,1.35l3.18,4.93L175,3.17c.64-1,.83-1.82-.77-1.82H174V.81Z"/><path class="cls-1" d="M182.68,8.36A7.69,7.69,0,0,1,190.33.48c4.67,0,7.93,3,7.93,7.37,0,4.74-3.29,8.18-7.83,8.18a7.45,7.45,0,0,1-7.75-7.67m2.77-.75c0,3.68,1.62,7.64,5.19,7.64,3.27,0,4.86-2.27,4.86-6.93,0-3.42-1.83-7.06-5.22-7.06C185.8,1.26,185.45,6.12,185.45,7.61Z"/><path class="cls-1" d="M206.6,15.7v-.54h-.19c-1,0-2.09,0-2.09-1.32V8.32H207c1.53,0,1.75,1.18,1.76,2.12h.49V5.67h-.49c0,.77-.19,1.74-1.42,1.74h-3V1.59h3.4c1.78,0,2.07,1.22,2.19,2.5l.5-.13,0-3.15H200v.54h.21c.85,0,1.63.16,1.63,1.32V13.84c0,1.16-.78,1.32-1.63,1.32H200v.54Z"/><path class="cls-1" d="M45.35,31.64a9.83,9.83,0,0,1,3.07-7.24,10.08,10.08,0,0,1,6.83-2.52,14.39,14.39,0,0,1,6.33,1.34l.19,4.33-.61.08c-.7-2.51-1.88-4.81-5.84-4.81S48.73,26,48.73,31.23c0,4.61,2,9,7,9a7.42,7.42,0,0,0,6.26-3l.49.92a8.91,8.91,0,0,1-7.25,3.34c-6,0-9.87-3.56-9.87-9.86"/><path class="cls-1" d="M85.64,25.93,85,37.47c-.11,2.56.68,2.78,2.4,2.84h.15V41H81.28v-.68h.24c2.12-.08,2.25-1.26,2.35-3l.73-11.82A2.13,2.13,0,0,0,82.33,23h-.22v-.68H87.4c.06.15,6.34,14.16,6.34,14.16s5.94-14,6-14.17h5.18V23h-.1c-2.1,0-2.47.66-2.31,3.3l.72,12.39c.11,1.45.87,1.58,2.3,1.63V41H97.79v-.68h0c1.26-.08,2.17-.13,2.17-1.4l0-1.34-.57-11.94L93,41.13h-.57c-.06-.15-6.75-15.2-6.75-15.2"/><path class="cls-1" d="M155.18,41v-.69h.26c1.07,0,2.05-.2,2.05-1.65v-14c0-1.45-1-1.65-2.05-1.65h-.26v-.69h8.35c3.11,0,5.71.78,7.52,2.47a9,9,0,0,1,2.74,6.83,9.81,9.81,0,0,1-2.86,7A9.62,9.62,0,0,1,164,41Zm5.48-17.79V37.88c0,2,.84,2.3,2.85,2.3,4.72,0,6.87-4.07,6.87-8,0-6.19-2.56-9-7.82-9C162.1,23.12,161.11,23.16,160.66,23.21Z"/><path class="cls-1" d="M189.69,40V35.46c0-1-.73-1.53-2.11-1.53h-.22v-.67h7.19v.67h-.22a1.37,1.37,0,0,0-1.54,1.53v5.1a21.94,21.94,0,0,1-6.57,1c-6.16,0-10.15-4-10.15-10.18,0-6.58,5.26-9.58,10.2-9.58a19.89,19.89,0,0,1,5.94.93l.3,4.46-.63,0c-.77-3.22-2.21-4.48-5.42-4.48-4.34,0-7,3.2-7,8.35,0,4.74,2.23,9.43,7.19,9.43a7.72,7.72,0,0,0,3-.47"/><path class="cls-1" d="M113.68,31.32V37.9c0,1.82.59,2.35,2.48,2.35a4.12,4.12,0,0,0,4-4.43c0-2.87-1.74-4.5-4.67-4.5Zm0-8.32v7.51h1.41c2.57,0,4-1.25,4-3.64,0-2.64-1.24-3.87-3.7-3.87Zm3.83,7.83c2.36.17,3.61.69,4.66,1.76a4.36,4.36,0,0,1,1.24,3.12c0,2.93-2.68,5.28-6.18,5.28h-9.15v-.67h.37c.9,0,2-.44,2-1.6V25.17c0-2.17-1.28-2.17-2-2.17h-.37v-.68h8.29c3.9,0,6,1.41,6,4.08,0,3-2.6,4.06-4.9,4.43"/><path class="cls-1" d="M70.76,22.31,64.83,38.44a2.49,2.49,0,0,1-2.37,1.85H62.4V41h5.69v-.7h-.25c-1.37,0-2.3-.43-1.7-2.2l1.35-3.77h5.89l1.47,4.11c.43,1.29-.12,1.88-1.53,1.88h-.16V41h7.23v-.69h-.06c-1,0-1.62-.5-2.07-1.78L72.16,22.32Zm-.33,3.82L73,33.4H67.82Z"/><path class="cls-1" d="M112.39.81l0,3.15-.5.13c-.11-1.38-.42-2.5-2.63-2.5h-3V7.41h2.54c1.25,0,1.59-.7,1.73-1.9h.51v4.87h-.51c-.08-1.17-.35-2.07-1.72-2.07h-2.55v5.11c0,1.49,1.28,1.49,2.64,1.49,2.43,0,3.56-.16,4.24-2.62l.5.11L113,15.7H102v-.55h.21c.85,0,1.64-.16,1.64-1.31V2.67c0-1.16-.79-1.32-1.64-1.32H102V.81h10.41"/><path class="cls-1" d="M0,.54V23.08C0,34.16,5.82,37.32,8.62,38.84c.51.28,9.14,4.57,9.69,4.84l.37.2.38-.2c.49-.24,9.18-4.56,9.69-4.84,2.8-1.52,8.62-4.68,8.62-15.76V.54Zm.81.81H14.88V15.71H.81Zm15.67,28L16.19,29l.36-.43.37.43-.29.35c0,.17,0,1.69.88,2.24a2,2,0,0,1-.7,0,4.39,4.39,0,0,1-.26.85,4.39,4.39,0,0,1-.26-.85,2,2,0,0,1-.7,0C16.49,31,16.48,29.52,16.48,29.35Zm0,7.78-.29-.35.36-.43.37.43-.29.35c0,.17,0,1.7.88,2.24a2,2,0,0,1-.7,0,4.39,4.39,0,0,1-.26.85,4.39,4.39,0,0,1-.26-.85,2,2,0,0,1-.7,0C16.49,38.83,16.48,37.3,16.48,37.13Zm1.26-1.65c.9-.54.89-2.07.89-2.24l-.3-.35.37-.43.37.43-.29.35c0,.17,0,1.7.88,2.24a2,2,0,0,1-.7,0,4.39,4.39,0,0,1-.26.85,4.39,4.39,0,0,1-.26-.85A2,2,0,0,1,17.74,35.48Zm.89-10-.3-.35.37-.44.37.44-.29.35c0,.17,0,1.69.88,2.24a2,2,0,0,1-.7,0,4.62,4.62,0,0,1-.26.85,4.62,4.62,0,0,1-.26-.85,2,2,0,0,1-.7,0C18.64,27.15,18.63,25.63,18.63,25.46Zm2.12,11.67-.29-.35.37-.43.36.43-.29.35c0,.17,0,1.7.89,2.24a2,2,0,0,1-.71,0,4,4,0,0,1-.25.85,4.39,4.39,0,0,1-.26-.85,2,2,0,0,1-.7,0C20.77,38.83,20.75,37.3,20.75,37.13Zm.33-5.56a4,4,0,0,1-.25.85,4.39,4.39,0,0,1-.26-.85,2,2,0,0,1-.7,0c.9-.55.88-2.07.88-2.24L20.46,29l.37-.43.36.43-.29.35c0,.17,0,1.69.89,2.24A2,2,0,0,1,21.08,31.57Zm.61-9.12v2.37H20.31V22.45H16.85v2.37H15.48v-2.4H14.31V16.26h1.26a.66.66,0,0,1,.64-.43.7.7,0,0,1,.66.43h1a.72.72,0,0,1,.68-.43.69.69,0,0,1,.64.43h1a.71.71,0,0,1,.63-.43.75.75,0,0,1,.65.36l.05.07h1.33v6.19ZM16.48,3.84l-.29-.34.36-.44.37.44-.29.34c0,.18,0,1.7.88,2.24a2,2,0,0,1-.7,0,4.39,4.39,0,0,1-.26.85,4.39,4.39,0,0,1-.26-.85,2,2,0,0,1-.7,0C16.49,5.54,16.48,4,16.48,3.84Zm0,7.78-.29-.34.36-.44.37.44-.29.34c0,.18,0,1.7.88,2.25a2.29,2.29,0,0,1-.7,0,4.62,4.62,0,0,1-.26.85,4.62,4.62,0,0,1-.26-.85,2.29,2.29,0,0,1-.7,0C16.49,13.32,16.48,11.8,16.48,11.62Zm2.15-3.89-.3-.34L18.7,7l.37.44-.29.34c0,.18,0,1.7.88,2.24a2,2,0,0,1-.7,0,4.39,4.39,0,0,1-.26.85,4.39,4.39,0,0,1-.26-.85,2,2,0,0,1-.7,0C18.64,9.43,18.63,7.91,18.63,7.73Zm2.12,3.89-.29-.34.37-.44.36.44-.29.34c0,.18,0,1.7.89,2.25a2.35,2.35,0,0,1-.71,0,4.12,4.12,0,0,1-.25.85,4.62,4.62,0,0,1-.26-.85,2.29,2.29,0,0,1-.7,0C20.77,13.32,20.75,11.8,20.75,11.62Zm.33-5.56a4,4,0,0,1-.25.85,4.39,4.39,0,0,1-.26-.85,2,2,0,0,1-.7,0c.9-.54.88-2.06.88-2.24l-.29-.34.37-.44.36.44-.29.34c0,.18,0,1.7.89,2.24A2,2,0,0,1,21.08,6.06ZM12.34,17l-.29-.35.37-.44.36.44-.29.35c0,.17,0,1.69.89,2.24a2.35,2.35,0,0,1-.71,0,5.05,5.05,0,0,1-.25.85,4.62,4.62,0,0,1-.26-.85,2.29,2.29,0,0,1-.7,0C12.36,18.73,12.34,17.21,12.34,17Zm-2.29,2.58-.29-.34.36-.44.37.44-.29.34c0,.18,0,1.7.88,2.24a2,2,0,0,1-.7,0,4.39,4.39,0,0,1-.26.85,4.78,4.78,0,0,1-.25-.85,2,2,0,0,1-.71,0C10.06,21.32,10.05,19.8,10.05,19.62ZM7.76,17l-.29-.35.36-.44.37.44L7.91,17c0,.17,0,1.69.88,2.24a2.29,2.29,0,0,1-.7,0,4.62,4.62,0,0,1-.26.85,4.62,4.62,0,0,1-.26-.85,2.29,2.29,0,0,1-.7,0C7.77,18.73,7.76,17.21,7.76,17Zm-2.3,2.58-.29-.34.37-.44.37.44-.29.34c0,.18,0,1.7.88,2.24a2,2,0,0,1-.7,0,4.39,4.39,0,0,1-.26.85,4.39,4.39,0,0,1-.26-.85,2,2,0,0,1-.7,0C5.48,21.32,5.47,19.8,5.46,19.62ZM3.17,17l-.29-.35.37-.44.37.44-.3.35c0,.17,0,1.69.89,2.24a2.29,2.29,0,0,1-.7,0,4.62,4.62,0,0,1-.26.85A4.62,4.62,0,0,1,3,19.26a2.29,2.29,0,0,1-.7,0C3.19,18.73,3.18,17.21,3.17,17ZM9,38.13C6.17,36.59.89,33.61.81,23.31H14.88V41.07C12.29,39.79,9.29,38.29,9,38.13Zm19.37,0c-.29.16-3.3,1.66-5.88,2.95V23.31H36.56C36.48,33.61,31.2,36.59,28.37,38.13ZM24.87,17l-.29-.35.37-.44.37.44L25,17c0,.17,0,1.69.88,2.24a2.29,2.29,0,0,1-.7,0,4.62,4.62,0,0,1-.26.85,4.62,4.62,0,0,1-.26-.85,2.29,2.29,0,0,1-.7,0C24.89,18.73,24.88,17.21,24.87,17Zm2.3,2.58-.29-.34.36-.44.37.44-.29.34c0,.18,0,1.7.88,2.24a2,2,0,0,1-.7,0,4.39,4.39,0,0,1-.26.85,4.39,4.39,0,0,1-.26-.85,2,2,0,0,1-.7,0C27.18,21.32,27.17,19.8,27.17,19.62ZM29.46,17l-.29-.35.37-.44.36.44-.29.35c0,.17,0,1.69.88,2.24a2.28,2.28,0,0,1-.7,0,5.05,5.05,0,0,1-.25.85,4.62,4.62,0,0,1-.26-.85,2.28,2.28,0,0,1-.7,0C29.47,18.73,29.46,17.21,29.46,17Zm2.29,2.58-.29-.34.37-.44.36.44-.29.34c0,.18,0,1.7.89,2.24a2,2,0,0,1-.7,0,4.39,4.39,0,0,1-.26.85,4.39,4.39,0,0,1-.26-.85,2,2,0,0,1-.7,0C31.77,21.32,31.76,19.8,31.75,19.62ZM34,17l-.29-.35.37-.44.37.44L34.2,17c0,.17,0,1.69.88,2.24a2.29,2.29,0,0,1-.7,0,4.62,4.62,0,0,1-.26.85,4.62,4.62,0,0,1-.26-.85,2.29,2.29,0,0,1-.7,0C34.06,18.73,34.05,17.21,34,17Zm2.52-1.33H22.49V1.35H36.56Z"/><path class="cls-1" d="M13.25,7.19a1.46,1.46,0,0,0-.49-1.05,1.15,1.15,0,0,0-.39-.27s-.06,0-.06.07v.15h0c0,.06,0,.11-.08.11S12.11,6.13,12,6a1.13,1.13,0,0,0-.95-.75c-.06,0-.11,0-.11.06a.59.59,0,0,0,.06.18l.1.21a.62.62,0,0,1,0,.11s0,0-.05,0a.37.37,0,0,1-.2-.11l-.18-.2-.15-.23a1.09,1.09,0,0,0-.49-.42L9.8,4.69a.3.3,0,0,0-.15-.05s-.06,0-.06.07a.27.27,0,0,0,.05.13.69.69,0,0,1,.12.24s0,.07-.06.07S9.41,5,9.24,4.71A1.23,1.23,0,0,1,9,4a.86.86,0,0,1,.88-.9,1.78,1.78,0,0,1,.89.3l.57.35A1.45,1.45,0,0,0,12,4a2,2,0,0,0,.35-.06.35.35,0,0,0,.14-.06s.06,0,.06-.07a.07.07,0,0,0,0-.05l-.07,0-.26-.05a1.19,1.19,0,0,1-.32-.12,3.87,3.87,0,0,1-.6-.3,1.94,1.94,0,0,0-.39-.22c-.1,0-.16-.08-.16-.12a0,0,0,0,1,0-.05.27.27,0,0,1,.13.05.91.91,0,0,0,.44.16l.52.18a3,3,0,0,0,.79.17.39.39,0,0,0,.39-.39,1,1,0,0,0-.21-.53.09.09,0,0,0-.08-.06s-.07,0-.07.1v.09l0,.15a.25.25,0,0,1-.24.27.45.45,0,0,1-.18,0l-.78-.25a4,4,0,0,0-1.28-.27A1.53,1.53,0,0,0,8.61,4c0,.94.67,1.56,2.31,2.12s1.85.69,1.85,1.11a.5.5,0,0,1-.51.46,1.23,1.23,0,0,1-.29,0l-.81-.19a5.89,5.89,0,0,0-1.48-.17,3,3,0,0,0-2.38.76A.4.4,0,0,1,7,8.2H6.68a.38.38,0,0,0-.34.21l-.2.33A.17.17,0,0,1,6,8.8c-.1,0-.17-.08-.29-.37a.93.93,0,0,0-.25-.36l-.24-.22a.12.12,0,0,1-.06-.09.31.31,0,0,1,0-.11,1.1,1.1,0,0,0,.17-.31c0-.16,0-.17.1-.17s.09.08.1.35a.72.72,0,0,0,.1.32l.13.29a.1.1,0,0,0,.1.06c.13,0,.28-.29.33-.6s.06-.33.11-.33l.05,0,.11.22a.52.52,0,0,0,.16.18.42.42,0,0,0,.14.08h0c.1,0,.13-.06.16-.29V7.35l0-.16V7.07C7,7,7,7,7,7a.12.12,0,0,1,.09,0l.12.12a.37.37,0,0,0,.23.11c.1,0,.16,0,.16-.1a.59.59,0,0,0-.11-.28L7.43,6.7c-.1-.18-.17-.25-.26-.25H7.05l-.15.06-.09,0s0,0,0,0A1,1,0,0,1,7,6a2.6,2.6,0,0,0,.19-.94c0-.62.12-1,.21-1s.08,0,.08.18v.28c0,.11,0,.2,0,.2s.23-.15.32-.4a.69.69,0,0,0,.06-.24V4l-.24-.44L7.39,3.5a.12.12,0,0,1-.08,0v-.3l0-.14,0-.12-.06-.13a1.36,1.36,0,0,0-.48.36c-.09.12-.15.17-.19.17a.06.06,0,0,1-.06-.06.82.82,0,0,1,0-.2V3a.8.8,0,0,0-.41-.67L6,2.39l-.08.12-.15.17a.88.88,0,0,0-.12.24.69.69,0,0,0,0,.13v.06c0,.1,0,.13-.06.13h0l-.09-.12L5.34,3l-.2-.13L5,2.75l0,.11a1.3,1.3,0,0,0-.06.19v.43c0,.1,0,.14-.09.14l-.14-.06a.34.34,0,0,0-.17-.05.29.29,0,0,0-.3.33,1.07,1.07,0,0,0,.19.63l.15.2s.12.1.13.07l0-.25,0-.2V4.2c0-.08,0-.13.07-.13s.11.08.16.28L5,4.79l.1.56a2,2,0,0,0,.14.48,2.16,2.16,0,0,0,.2.41c.13.17.15.2.15.23a.06.06,0,0,1,0,.06.21.21,0,0,1-.11,0l-.14,0-.1,0c-.19,0-.23.17-.23,1a5.09,5.09,0,0,0,.23,1.47l.25.63a.8.8,0,0,1,.06.3c0,.87-1.15,2.23-2.42,2.86a1,1,0,0,0-.66,1v.15a1.36,1.36,0,0,1,.41-.16c.35-.1.42-.14.48-.31l0-.16c0-.06,0-.08.33-.23a.52.52,0,0,0,.19-.15c.06-.1.11-.15.14-.15s0,0,0,0v0L3.89,13l0,.08a.65.65,0,0,0,.4.59,1.09,1.09,0,0,1,.15-.5l.22-.33a.92.92,0,0,0,.11-.51,2.09,2.09,0,0,0,0-.38V11.9c0-.06,0-.1.09-.1a.09.09,0,0,1,.08,0l0,.22a.12.12,0,0,0,.12.09c.11,0,.26-.15.42-.42a.61.61,0,0,0,.09-.31l0-.17,0-.17v0a.12.12,0,0,1,.11-.13s.05,0,.05,0l.07.28c0,.09.09.15.16.15s.21-.14.3-.3a1.06,1.06,0,0,0,.1-.48c0-.26,0-.33.12-.33s.06,0,.06,0l0,.15c0,.06,0,.1.09.1s.18-.15.27-.3a.26.26,0,0,0,0-.11A.24.24,0,0,0,6.8,10c-.13-.1-.14-.12-.14-.27a.72.72,0,0,1,.14-.42c0-.1.11-.19.15-.28.15-.3.21-.38.26-.38a.1.1,0,0,1,.09.11.22.22,0,0,1,0,.1.38.38,0,0,0,0,.14A.08.08,0,0,0,7.31,9,.43.43,0,0,0,7.52,9l.34-.13.39-.14a.86.86,0,0,1,.24,0l.21,0L9,8.73a.21.21,0,0,0,.2-.2A.76.76,0,0,0,9,8.16a.18.18,0,0,1-.06-.1V8S9,8,9,8s.27.2.43.47c1,1.61,1.4,2,2.09,2.22s.89.37.89.79a1.6,1.6,0,0,1-.37.85c-.52.73-.65,1-.65,1.5v.09l.13-.06a.68.68,0,0,1,.19-.08l.3-.06a.27.27,0,0,0,.17-.25v0l0-.26v0a.36.36,0,0,1,.11-.25l.06,0a.14.14,0,0,1,.1.07l.19.41c.07.16.17.24.41.35a1.3,1.3,0,0,1,0-.28v-.1l0-.19,0-.15a.56.56,0,0,0-.09-.36l-.14-.19a.84.84,0,0,1-.12-.23.26.26,0,0,1,0-.1.09.09,0,0,1,.09-.09s.05,0,.15.07a.24.24,0,0,0,.12,0c.07,0,.11-.11.11-.32a.7.7,0,0,0-.07-.41l-.18-.2L12.73,11a.2.2,0,0,1-.07-.11.09.09,0,0,1,.1-.09,1.16,1.16,0,0,1,.26.06l.06,0c.05,0,.07,0,.07-.1v-.05l0-.25L13,10.24c0-.09,0-.1-.09-.1h0l-.3,0h0a1.06,1.06,0,0,1-.93-.75l-.24-.77A1.55,1.55,0,0,0,10.83,8a.57.57,0,0,0-.24-.13l-.22,0s-.06,0-.06-.06,0-.07.15-.07l.39,0a2.83,2.83,0,0,1,.65.17,2.49,2.49,0,0,0,.8.17A.84.84,0,0,0,13.25,7.19ZM6.44,4a1,1,0,0,0,.4-.22L7,3.65H7s.06,0,.06.09a2.34,2.34,0,0,1-.33.72c-.13.21-.19.34-.24.34s-.11-.09-.12-.2l0-.15-.06-.16,0-.1C6.25,4.09,6.3,4,6.44,4ZM5.1,3.78v0c0-.06,0-.09.07-.09a.3.3,0,0,1,.14.07L5.63,4l.2.11a.11.11,0,0,1,.09.11l0,.08a1.15,1.15,0,0,0,0,.25.2.2,0,0,1-.23.21s0,0-.12-.13l-.26-.3A1.12,1.12,0,0,1,5.1,3.78Zm.46,2a1.78,1.78,0,0,1-.16-.53c0-.09.07-.15.18-.15a.38.38,0,0,1,.17,0l.14.09h.45l.19-.12.12,0c.13,0,.16,0,.16.19s-.13.3-.37.9c-.11.26-.13.42-.29.42s-.3-.15-.44-.48Z"/><path class="cls-1" d="M3.33,6.07c.08,0,.2-.15.26-.32a.91.91,0,0,0,.05-.27.91.91,0,0,0-.05-.27c0-.13-.11-.19-.18-.19s-.14.07-.15.23l0,.23a1.67,1.67,0,0,0,0,.29C3.21,5.94,3.26,6.07,3.33,6.07Z"/><path class="cls-1" d="M4.8,8.88l0-.25,0-.23,0-.26c0-.07,0-.1-.06-.1s-.07,0-.1.09c-.19.28-.32.38-.52.38-.64,0-1.12-1.12-1.12-2.6,0-.13,0-.29,0-.49a4.7,4.7,0,0,0,0-.61,1.89,1.89,0,0,0-.4-1.37l-.17-.17-.11-.12v.11A3.22,3.22,0,0,1,2.16,4a.63.63,0,0,0,0,.21.53.53,0,0,0,.1.28.22.22,0,0,0,.1.11l.15.08,0,.16a.73.73,0,0,0,0,.27,1.34,1.34,0,0,1,0,.35c0,.1,0,.14,0,.14s-.12-.12-.19-.3-.22-.4-.38-.4a.74.74,0,0,0-.38.1l.08.09.1.21.17.32.2.38a.55.55,0,0,0,.17.17l.19.11c.06,0,.1.07.1.11a.09.09,0,0,1-.1.09h0l-.16,0H2.25s-.07,0-.07.14a1.46,1.46,0,0,0,.7,1,.22.22,0,0,1,.1.13.08.08,0,0,1-.09.07l-.15,0-.08,0c-.06,0-.1.05-.1.12a1.63,1.63,0,0,0,.22.54.84.84,0,0,0,.4.39l.54.23a.08.08,0,0,1,0,.07.08.08,0,0,1-.08.08h-.1l-.1,0-.15,0h0c-.07,0-.1,0-.1.06a1.41,1.41,0,0,0,.17.39c.13.21.24.33.31.33a.09.09,0,0,0,.08-.06l.13-.27a.93.93,0,0,1,.31-.24.81.81,0,0,1,.33-.13l.22,0a.1.1,0,0,0,.08-.11v0Z"/><path class="cls-1" d="M2.9,12.21a.32.32,0,0,0,.19.07c.24,0,.44-.11.76-.41a1.3,1.3,0,0,1-.35-.08l-.22-.09a1.11,1.11,0,0,0-.46-.12.75.75,0,0,0-.5.2l.11.08.24.17Z"/><path class="cls-1" d="M9.74,10.51a.31.31,0,0,1,0-.13l.08-.2a.58.58,0,0,0,0-.19.68.68,0,0,0-.12-.37l-.16-.25c-.07-.19-.11-.24-.16-.24H9.39l-.09,0-.13.07L9,9.45l-.17.09a.55.55,0,0,0-.2.43c0,.31,0,.4.45,1.11a1.43,1.43,0,0,1,.24.68c0,.49-.44.83-1.32,1l-.54.14a.92.92,0,0,0-.73.84.94.94,0,0,1,.53-.1h.2c.16,0,.18,0,.28-.16a1,1,0,0,1,.4-.33l.19-.08L8.5,13h.05s.07,0,.07.05a.44.44,0,0,1-.12.2.61.61,0,0,0-.19.46.48.48,0,0,0,.13.32.71.71,0,0,1,.24-.31c.33-.29.49-.5.49-.67V12.8c0-.15,0-.2.11-.2a.08.08,0,0,1,.07,0l.06.14a.11.11,0,0,0,.1.06s.11-.06.17-.14l.12-.17a.37.37,0,0,0,.09-.23.32.32,0,0,0,0-.14L9.78,12a.49.49,0,0,1,0-.19c0-.08,0-.12.11-.12a.09.09,0,0,1,.08,0l.1.11a.11.11,0,0,0,.09,0s.09,0,.12-.1l.1-.2a.26.26,0,0,0,0-.1s0-.08-.1-.11l-.16-.07A.88.88,0,0,1,9.74,10.51Z"/><path class="cls-1" d="M7.3,12.52c.11.15.13.17.24.17l.17,0,.11,0c.2,0,.27-.07.27-.12s0-.06-.07-.1l-.13-.12-.13-.12a.67.67,0,0,0-.39-.13.74.74,0,0,0-.43.15A1.25,1.25,0,0,1,7.3,12.52Z"/><path class="cls-1" d="M11.66,12.37c0-.08-.07-.13-.21-.13-.32,0-.52.19-.65.6h.34A.51.51,0,0,0,11.66,12.37Z"/><path class="cls-1" d="M6,6.2c0,.13.08.19.18.19s.19-.08.2-.23l0-.26c0-.18,0-.27,0-.27a.09.09,0,0,0,0-.08l-.06,0h0l-.19,0H5.93a.07.07,0,0,0-.06,0l0,.06L5.9,6Z"/><path class="cls-1" d="M27.23,4.79l.1.56a2,2,0,0,0,.14.48,2.16,2.16,0,0,0,.2.41c.13.17.15.2.15.23a.06.06,0,0,1-.05.06.21.21,0,0,1-.11,0l-.14,0-.09,0c-.2,0-.24.16-.24,1a4.79,4.79,0,0,0,.23,1.48l.25.63a.8.8,0,0,1,.06.3c0,.87-1.18,2.26-2.42,2.86-.48.23-.63.47-.67,1.13a1.78,1.78,0,0,1,.42-.16c.35-.1.43-.15.48-.31l0-.16c0-.07.07-.1.31-.23a.47.47,0,0,0,.2-.15c.06-.1.11-.15.14-.15s.05,0,.05.06v0l-.14.34v.08a.65.65,0,0,0,.4.59,1.06,1.06,0,0,1,0-.14,1.6,1.6,0,0,1,.12-.36l.23-.33c.08-.12.1-.2.1-.51L27,12V11.9c0-.06,0-.1.09-.1a.09.09,0,0,1,.08,0l0,.22a.12.12,0,0,0,.12.09c.11,0,.26-.15.42-.42a.52.52,0,0,0,.08-.28,2.73,2.73,0,0,0,0-.37V11a.09.09,0,0,1,.09-.1l.06,0,.08.28a.2.2,0,0,0,.16.15c.18,0,.37-.37.39-.77s.05-.34.12-.34.06,0,.06,0l.05.15c0,.06.05.1.08.1s.1-.06.17-.15l.11-.15a.31.31,0,0,0,0-.13c0-.06,0-.07-.1-.15a.3.3,0,0,1-.14-.25A1.55,1.55,0,0,1,29.21,9c.2-.34.22-.38.27-.38a.1.1,0,0,1,.08.1.23.23,0,0,1,0,.11.59.59,0,0,0-.05.14.1.1,0,0,0,.1.09A.49.49,0,0,0,29.8,9l.32-.13.4-.14a1,1,0,0,1,.25,0l.21,0,.27.05a.19.19,0,0,0,.19-.19.52.52,0,0,0-.07-.21l-.11-.17c-.05-.05-.07-.08-.07-.1V8s0,0,.07,0,.28.19.45.47c.93,1.52,1.38,2,2.07,2.22s.89.36.89.79a1.53,1.53,0,0,1-.38.85,2.53,2.53,0,0,0-.64,1.49v.1l.13-.06a.68.68,0,0,1,.19-.08l.3-.06a.26.26,0,0,0,.17-.25v0l0-.26v0c0-.15.07-.27.16-.27a.11.11,0,0,1,.09.07l.2.41c.07.16.16.24.41.35a.7.7,0,0,1,0-.22v-.16a3.15,3.15,0,0,0,0-.46.38.38,0,0,0-.09-.24l-.14-.19a.5.5,0,0,1-.13-.33c0-.07,0-.09.06-.09h.06l.1.06a.24.24,0,0,0,.12,0c.07,0,.11-.11.11-.33a.64.64,0,0,0-.24-.6L35,11a.21.21,0,0,1,0-.1c0-.06,0-.1.08-.1l.14,0,.13,0,.06,0s0,0,0-.11v0l0-.25c0-.26-.08-.36-.16-.36h0l-.31,0h-.06a1.08,1.08,0,0,1-.92-.75l-.23-.77A1.64,1.64,0,0,0,33.1,8a.6.6,0,0,0-.25-.13l-.22,0s-.06,0-.06-.06,0-.07.13-.07a3.45,3.45,0,0,1,1.06.2,2.47,2.47,0,0,0,.79.17c.6,0,1-.31,1-.82a1.58,1.58,0,0,0-.23-.8,1.9,1.9,0,0,0-.56-.52l-.09,0a.06.06,0,0,0-.06.06v.16h0c0,.06,0,.11-.08.11s-.13-.08-.21-.24a1.12,1.12,0,0,0-.94-.75c-.08,0-.12,0-.12.08a.35.35,0,0,0,.06.16,2,2,0,0,1,.11.21.33.33,0,0,1,0,.1s0,0-.06,0a.37.37,0,0,1-.2-.11L33,5.5l-.15-.23a1.1,1.1,0,0,0-.48-.42l-.3-.16a.37.37,0,0,0-.15-.05.05.05,0,0,0-.06.06.27.27,0,0,0,.06.14.64.64,0,0,1,.11.23s0,.08-.06.08-.24-.15-.45-.44A1.14,1.14,0,0,1,31.29,4a.87.87,0,0,1,.88-.9,1.81,1.81,0,0,1,.89.3l.58.35a1.49,1.49,0,0,0,.65.21,1,1,0,0,0,.34-.06.34.34,0,0,0,.15-.06.08.08,0,0,0,0-.07s0-.07-.11-.07a3.4,3.4,0,0,1-1.18-.47,2.3,2.3,0,0,0-.39-.22C33.05,3,33,3,33,2.92s0,0,.06,0h.06l.52.19.5.18a3.09,3.09,0,0,0,.81.17.37.37,0,0,0,.38-.38.67.67,0,0,0-.08-.33c-.07-.15-.16-.27-.2-.27s-.07,0-.07.13v.06l0,.16a.23.23,0,0,1-.23.26.5.5,0,0,1-.19,0l-.78-.25a4,4,0,0,0-1.27-.27A1.53,1.53,0,0,0,30.87,4c0,1,.65,1.54,2.33,2.12S35,6.8,35,7.23a.49.49,0,0,1-.52.45,1.2,1.2,0,0,1-.28,0l-.81-.19a5.89,5.89,0,0,0-1.48-.17,3,3,0,0,0-2.37.76.42.42,0,0,1-.36.15h-.27a.39.39,0,0,0-.34.21l-.19.33a.16.16,0,0,1-.14.07c-.12,0-.18-.08-.3-.37a.81.81,0,0,0-.24-.36l-.25-.22s-.06-.06-.06-.08a.22.22,0,0,1,.06-.12l.11-.16a.64.64,0,0,0,.06-.15V7.23a.09.09,0,0,1,.08-.06c.08,0,.1.06.1.35a.82.82,0,0,0,.09.32l.14.29a.09.09,0,0,0,.1.06c.13,0,.28-.29.32-.6s.07-.33.12-.33.07,0,.17.24a.73.73,0,0,0,.14.18.56.56,0,0,0,.15.08h0c.1,0,.13-.06.15-.29l0-.12,0-.16V7.07c0-.08,0-.12.07-.12a.14.14,0,0,1,.09,0l.12.12a.32.32,0,0,0,.24.11c.1,0,.16,0,.16-.11s0-.09-.12-.27l-.08-.15c-.11-.2-.16-.25-.25-.25h-.12l-.16.06-.09,0s0,0,0,0a1.1,1.1,0,0,1,.2-.49,2.47,2.47,0,0,0,.21-.94l.06-.56c0-.34.07-.46.14-.46s.05,0,.05,0l0,.18V4.4a.67.67,0,0,0,0,.31c.06,0,.13-.06.2-.16a.9.9,0,0,0,.12-.24A1.1,1.1,0,0,0,30.14,4c0-.28-.11-.4-.49-.5,0,0-.06,0-.07,0V3.15l0-.14,0-.12-.06-.13-.1.06a1.24,1.24,0,0,0-.38.3c-.11.14-.15.17-.19.17a.06.06,0,0,1-.06,0L28.76,3V3a.89.89,0,0,0-.41-.7l-.08.09-.09.12L28,2.68a.56.56,0,0,0-.13.35v.08c0,.09,0,.13-.06.13h0l-.1-.12L27.61,3l-.21-.13-.11-.08a1,1,0,0,0-.12.6v.1c0,.1,0,.17-.09.17a.37.37,0,0,1-.15-.06.37.37,0,0,0-.17-.05.32.32,0,0,0-.31.35,1,1,0,0,0,.2.61c.09.15.21.28.27.28a1.46,1.46,0,0,0,0-.26l0-.2V4.2c0-.08,0-.13.07-.13s.11.08.15.28ZM28.71,4a1.71,1.71,0,0,0,.39-.21l.13-.13h0s.06,0,.06.09a1.87,1.87,0,0,1-.31.68c-.13.21-.21.38-.26.38s-.11-.09-.13-.2l0-.11-.1-.2,0-.1C28.51,4.09,28.56,4,28.71,4Zm-.42,1.24h.32l.18-.12.07,0a.32.32,0,0,1,.29.27c0,.12-.16.19-.23.36l-.13.53c-.09.26-.22.39-.37.39s-.32-.15-.45-.48a4,4,0,0,0-.16-.38,2,2,0,0,1-.15-.5.16.16,0,0,1,.18-.18.38.38,0,0,1,.17,0l.14.09Zm-.86-1.58a.3.3,0,0,1,.14.07l.32.26.2.11a.15.15,0,0,1,.09.13v.06l-.06.21,0,.24a.07.07,0,0,1-.07,0h0a.63.63,0,0,1-.26-.17l-.18-.3A1,1,0,0,1,27.41,4a1.94,1.94,0,0,1-.05-.2v0C27.36,3.68,27.38,3.65,27.43,3.65Z"/><path class="cls-1" d="M25.59,6.07c.08,0,.2-.15.26-.32a1.37,1.37,0,0,0,.06-.32.66.66,0,0,0-.06-.22c-.06-.14-.11-.2-.18-.2s-.15.14-.17.47v.31C25.49,6,25.52,6.07,25.59,6.07Z"/><path class="cls-1" d="M24.76,6.32c.07,0,.11.07.11.11s0,.09-.11.09l-.17,0h-.08c-.05,0-.07,0-.07.13a1.45,1.45,0,0,0,.72,1c.05,0,.09.09.09.12a.07.07,0,0,1,0,.06l-.06,0L25,7.8l-.09,0c-.05,0-.09.05-.09.14a1.2,1.2,0,0,0,.22.52.9.9,0,0,0,.39.39l.54.23a.07.07,0,0,1,.05.06A.09.09,0,0,1,26,9.2h-.09l-.11,0-.14,0h0c-.07,0-.1,0-.1.06a1.07,1.07,0,0,0,.18.39c.13.22.22.33.29.33A.09.09,0,0,0,26,9.93l.13-.27s.12-.12.31-.24a.65.65,0,0,1,.33-.13c.29,0,.31-.06.31-.18a1.76,1.76,0,0,0,0-.23,1.18,1.18,0,0,1,0-.25l0-.23,0-.26c0-.07,0-.1-.06-.1s-.06,0-.09.09a.71.71,0,0,1-.52.38c-.66,0-1.12-1.06-1.12-2.62V5.42l0-.56v-.2a1.86,1.86,0,0,0-.41-1.22l-.17-.17-.11-.12v.11a2.3,2.3,0,0,1-.08.5c0,.17-.07.26-.08.28a1.49,1.49,0,0,0,0,.21.44.44,0,0,0,.2.39l.14.08,0,.16a1,1,0,0,0,0,.27,1.1,1.1,0,0,1,0,.35c0,.1,0,.14,0,.14s-.12-.12-.19-.3-.22-.4-.38-.4a.72.72,0,0,0-.38.1,2.5,2.5,0,0,1,.35.62C24.39,6.08,24.46,6.17,24.76,6.32Z"/><path class="cls-1" d="M25.16,12.21a.32.32,0,0,0,.2.07c.23,0,.43-.11.75-.41a1.74,1.74,0,0,1-.57-.17,1.07,1.07,0,0,0-.45-.12.71.71,0,0,0-.51.2l.11.08.24.17Z"/><path class="cls-1" d="M32,10.54a.41.41,0,0,1,0-.16l.07-.2a.71.71,0,0,0,0-.2A.67.67,0,0,0,32,9.62c-.09-.13-.13-.22-.15-.25s-.11-.24-.17-.24a.33.33,0,0,0-.15.06l-.12.07-.17.19-.16.09a.56.56,0,0,0-.2.44c0,.26.06.4.45,1.1a1.55,1.55,0,0,1,.24.67c0,.49-.5.89-1.3,1.05-1,.2-1.18.36-1.29,1a.92.92,0,0,1,.53-.1h.2c.16,0,.18,0,.28-.16a1,1,0,0,1,.4-.33l.19-.08.15-.09h0s.07,0,.07.05a.4.4,0,0,1-.12.2.71.71,0,0,0-.18.39.64.64,0,0,0,.12.39.71.71,0,0,1,.24-.31c.33-.29.49-.5.49-.67V12.8c0-.15,0-.2.1-.2a.09.09,0,0,1,.08,0l.06.14a.1.1,0,0,0,.1.05c.08,0,.14-.06.29-.3a.48.48,0,0,0,.09-.24.35.35,0,0,0,0-.13L32,12a.49.49,0,0,1-.05-.19c0-.08,0-.12.11-.12a.09.09,0,0,1,.08,0l.1.11s0,0,.06,0a.24.24,0,0,0,.15-.1l.1-.2a.26.26,0,0,0,0-.1.12.12,0,0,0-.09-.11l-.17-.07A.85.85,0,0,1,32,10.54Z"/><path class="cls-1" d="M29.56,12.52c.11.15.13.17.24.17l.17,0,.11,0c.2,0,.27-.07.27-.12a.14.14,0,0,0-.05-.1l-.15-.12L30,12.18a.66.66,0,0,0-.37-.13.8.8,0,0,0-.45.15A1.4,1.4,0,0,1,29.56,12.52Z"/><path class="cls-1" d="M33.88,12.51a.3.3,0,0,0,0-.14c0-.08-.07-.13-.2-.13-.33,0-.53.19-.66.6h.35a.36.36,0,0,0,.24-.05A1.33,1.33,0,0,0,33.88,12.51Z"/><path class="cls-1" d="M28.1,5.66l.06.29.05.25c0,.13.05.19.15.19a.23.23,0,0,0,.23-.23l0-.26,0-.27a.12.12,0,0,0,0-.08l-.06,0h0l-.19,0H28.2a.07.07,0,0,0-.06,0A.17.17,0,0,0,28.1,5.66Z"/><path class="cls-1" d="M13.35,29.58a1.63,1.63,0,0,0-.54-1.16.8.8,0,0,0-.3-.18h0l-.06,0,0,.17.05.12v.05s0,0-.06,0a.1.1,0,0,1-.08,0l-.22-.32a1.11,1.11,0,0,0-.82-.47c-.09,0-.16,0-.16.11a.25.25,0,0,0,.08.14.39.39,0,0,1,.1.19v.05s0,.05-.05.05h0c-.06,0-.08,0-.34-.32a1.53,1.53,0,0,0-.88-.48.12.12,0,0,0-.09,0,.09.09,0,0,0,0,.05s0,.08.09.13a.42.42,0,0,1,.13.19s0,0-.07,0a1.52,1.52,0,0,1-.5-.32,1.35,1.35,0,0,1-.65-1.06.78.78,0,0,1,.75-.83,1.45,1.45,0,0,1,.8.29l.59.44a1.56,1.56,0,0,0,.94.31.46.46,0,0,0,.2-.05c.06,0,.09-.05.09-.08s-.05,0-.11-.05a1.37,1.37,0,0,1-.5-.21L11.1,26c-.22-.16-.37-.27-.46-.32-.32-.16-.38-.2-.38-.24s0,0,.07,0l.1,0,.31.13a3.41,3.41,0,0,1,.51.3,2.31,2.31,0,0,0,1.33.56.59.59,0,0,0,.62-.59.41.41,0,0,0,0-.21l-.06-.12S13,25.4,13,25.41l0,.05,0,.25,0,.09-.09.11a.25.25,0,0,1-.22.09c-.18,0-.39-.1-.95-.46A2.89,2.89,0,0,0,10.18,25a1.55,1.55,0,0,0-1.55,1.54c0,1.2.73,1.74,3,2.24.87.19,1.25.44,1.25.83s-.28.58-.74.58a1.39,1.39,0,0,1-.32,0l-1.23-.33A5.82,5.82,0,0,0,9,29.6a2.12,2.12,0,0,0-1.91.85c-.05.07-.1.11-.13.11l-.1,0-.17-.13a.73.73,0,0,0-.43-.17.38.38,0,0,0-.25.11c-.06.05-.1.08-.12.08s-.19-.15-.28-.35a1.81,1.81,0,0,1-.21-.81c0-.12,0-.2.09-.2s.08,0,.09.1l.1.34c0,.19.16.35.24.35s.1-.06.18-.15a.65.65,0,0,0,.09-.16c.08-.22.09-.25.15-.25s.11,0,.16.26a.79.79,0,0,0,.07.2,1,1,0,0,0,.15.22.16.16,0,0,0,.12.06c.11,0,.2-.18.2-.37v-.05l0-.22c0-.09,0-.11.07-.11a.1.1,0,0,1,.08,0,.55.55,0,0,0,.2.17.43.43,0,0,0,.17.06.17.17,0,0,0,.12-.06.14.14,0,0,0,.05-.09s0-.09-.17-.22a1.49,1.49,0,0,1-.24-.47c0-.1-.08-.16-.11-.16l-.08,0L7,28.62l-.11.05h0a.09.09,0,0,1-.09-.08A.64.64,0,0,1,7,28.31.42.42,0,0,0,7.13,28c0-.2,0-.36.08-.36l0-.41a4.26,4.26,0,0,1,.18-.83s0-.07.05-.07.06.09.06.19v.18c0,.15,0,.23.07.23s.11-.07.16-.21l.11-.27a.68.68,0,0,0,0-.22.36.36,0,0,0-.33-.4H7.5l-.08,0a.14.14,0,0,1-.12-.15v-.42l0-.25v-.12L7.13,25,7,25.09l-.19.16-.16.13a.14.14,0,0,1-.09,0c-.09,0-.1,0-.1-.21v0c0-.15-.06-.27-.31-.56l-.06-.07,0,.08-.14.22-.13.33,0,.22c0,.06,0,.11-.06.11s-.06,0-.11-.09a.86.86,0,0,0-.51-.34l0,.08c0,.14-.07.22-.08.25v.4c0,.06,0,.1-.06.1h0l-.07-.06a.27.27,0,0,0-.15,0,.32.32,0,0,0-.36.32c0,.14,0,.24.27.58.1.15.21.26.25.26s.06-.07.06-.16l0-.15a.45.45,0,0,1,0-.18c0-.07,0-.1.06-.1s.22.31.26.74l0,.44a1.68,1.68,0,0,0,.14.47,1.3,1.3,0,0,0,.31.45c.12.08.19.15.19.2a.07.07,0,0,1-.07.07l-.24-.08-.1,0c-.24,0-.31.14-.31.55a2.3,2.3,0,0,0,.7,1.51l.55.44a1.26,1.26,0,0,1,.49.86c0,.35-.38.69-1,.93l-.39.14c-.31.11-.43.31-.55.88a.89.89,0,0,1,.33-.06h.23a.24.24,0,0,0,.27-.23v-.11s0-.08.11-.11L6,33.36l.13-.11a.09.09,0,0,1,.07,0s.06,0,.06.08a.65.65,0,0,1,0,.11,1.12,1.12,0,0,0-.07.41,1,1,0,0,0,.2.66.91.91,0,0,1,0-.16A3.81,3.81,0,0,1,6.61,34a1.57,1.57,0,0,0,.31-.72v-.05l0-.28a.18.18,0,0,1,.06-.13.13.13,0,0,1,.08,0c.05,0,.08,0,.12.11s.06.11.09.11.12-.11.17-.24a.65.65,0,0,0,.06-.25.49.49,0,0,0,0-.15.33.33,0,0,1,0-.14s0,0,.05-.08l.06,0,.07,0,.11.07a.16.16,0,0,0,.09,0,.25.25,0,0,0,.17-.13,1.11,1.11,0,0,0,.17-.34s0-.05-.09-.1a.88.88,0,0,1-.39-.64.38.38,0,0,1,0-.17l.12-.32.09-.26h0s.06,0,.06.09a.39.39,0,0,1,0,.14.74.74,0,0,0,0,.23.12.12,0,0,0,.13.13.53.53,0,0,0,.2-.05,2.3,2.3,0,0,1,.82-.24.66.66,0,0,1,.43.16.21.21,0,0,0,.11,0,.09.09,0,0,0,.07,0,.21.21,0,0,0,0-.06.25.25,0,0,0-.07-.16.26.26,0,0,1-.08-.17.05.05,0,0,1,.06-.06c.19,0,.48.59.76,1.53.22.74.28.82,1,1.22a1.29,1.29,0,0,1,.83,1.22,6.88,6.88,0,0,1-.46,2.12,2,2,0,0,0-.14.63,1.8,1.8,0,0,0,.12.57c0,.16.07.25.08.28s.05.09.1.18l.07-.15.16-.18a.83.83,0,0,0,.22-.61,1.32,1.32,0,0,0-.06-.39.85.85,0,0,1,0-.21c0-.07.06-.15.11-.15s.06,0,.09.06l.18.21a.44.44,0,0,0,.29.18v-.37a1.37,1.37,0,0,0-.26-.8.63.63,0,0,1-.14-.24s0-.09.07-.09l0,0c.11.08.17.12.2.12s.11-.14.11-.3a1.1,1.1,0,0,0-.24-.67.86.86,0,0,1-.14-.18.09.09,0,0,1,0-.07c0-.05,0-.08.11-.08a.22.22,0,0,1,.14.06l.09,0c.1,0,.13-.13.13-.48v-.36c0-.26,0-.3-.15-.3h-.09c-.58,0-.86-.37-1-1.36-.1-.72-.37-1.23-.7-1.34s-.27-.11-.27-.16.06-.06.12-.06a.61.61,0,0,1,.22.06,3.39,3.39,0,0,0,1.23.28A1,1,0,0,0,13.35,29.58ZM6.62,26.21a.63.63,0,0,0,.24-.07L7.05,26h0a0,0,0,0,1,0,0v0l-.09.2-.26.29-.15.28-.06.06h0c-.07,0-.13-.14-.14-.29l0-.24C6.41,26.28,6.47,26.24,6.62,26.21Zm-1.29.06-.06-.18V26s0,0,0,0a.35.35,0,0,1,.14.07.34.34,0,0,0,.16.06c.33.09.4.15.4.3v.2l0,.18c0,.08,0,.1-.08.1a1.22,1.22,0,0,1-.26-.18l-.11-.17Zm.27,1.52a.91.91,0,0,1-.09-.33c0-.16.07-.23.2-.23a.25.25,0,0,1,.13,0l.11.07a.49.49,0,0,0,.3.1.46.46,0,0,0,.21-.05l.19-.09.09,0c.1,0,.17.07.17.2a1.62,1.62,0,0,1-.26.58c-.15.28-.27.48-.4.48S5.84,28.24,5.6,27.79Z"/><path class="cls-1" d="M10.3,33.08a3.23,3.23,0,0,0-.06-.65,3.64,3.64,0,0,0-.21-.51,3.62,3.62,0,0,1-.14-.43c0-.11-.07-.15-.15-.15a.59.59,0,0,0-.57.64,3,3,0,0,0,.25,1,2.84,2.84,0,0,1,.29,1c0,.44-.17.63-.78.85A1.49,1.49,0,0,0,7.81,36L7.93,36l.17-.06.19,0a.45.45,0,0,0,.32-.22l.05-.17a.1.1,0,0,1,.07-.08l.11,0,.1-.05,0,.05-.05.15a1,1,0,0,0,0,.28.87.87,0,0,0,.2.61A1.86,1.86,0,0,1,9.32,36a1.14,1.14,0,0,0,.27-.58V35.2c0-.18,0-.27.1-.27a.07.07,0,0,1,.06,0l.06.09a.11.11,0,0,0,.09,0A.19.19,0,0,0,10,35a.78.78,0,0,0,.14-.42v-.27c0-.07,0-.1.1-.1s.06,0,.1.11.06.09.09.09a.15.15,0,0,0,.1-.07l.1-.14.07-.11,0-.06s0-.06-.09-.11A1,1,0,0,1,10.3,33.08Z"/><path class="cls-1" d="M5,29.84c0-.15,0-.25-.1-.25s-.06,0-.09.09a.53.53,0,0,1-.42.26c-.41,0-.91-.65-1.16-1.51a2.25,2.25,0,0,1-.09-.64,3.17,3.17,0,0,1,.09-.73l.13-.58,0-.17a1.42,1.42,0,0,0-.7-1,.58.58,0,0,1,0,.14s0,.14-.05.3l0,.25a2.06,2.06,0,0,0,.1.62,1.12,1.12,0,0,1,.08.28V27c0,.05,0,.08,0,.08A.19.19,0,0,1,2.66,27a.68.68,0,0,0-.44-.18l-.21,0,.06.13.18.45.25.38.26.18s.05,0,.08.07a.16.16,0,0,1,0,.08,0,0,0,0,1-.05,0H2.59s-.07,0-.07,0a1.51,1.51,0,0,0,.1.35l.12.35.2.19.22.16a.19.19,0,0,1,.1.13s0,.07,0,.07H3.1s-.06,0-.06.1a1,1,0,0,0,.24.46c.18.25.31.34.52.34H4c.09,0,.14,0,.14.11s0,.08-.12.1-.21.07-.21.15a.28.28,0,0,0,.06.13L4,31c.07.11.16.18.22.18a.37.37,0,0,0,.18-.11.63.63,0,0,1,.38-.26c.42-.11.5-.15.5-.25a.33.33,0,0,0,0-.14A1,1,0,0,1,5,29.84Z"/><path class="cls-1" d="M3.49,28s0,0,.06-.06l.13-.24a1.46,1.46,0,0,0,.09-.15.38.38,0,0,0,.08-.18.53.53,0,0,0-.3-.4,2.08,2.08,0,0,0-.17.78C3.38,27.92,3.43,28,3.49,28Z"/><path class="cls-1" d="M5.4,32.8a1.32,1.32,0,0,0,.44-.12s.09-.06.09-.08,0-.07-.12-.14l-.13-.12a.67.67,0,0,0-.32-.17.9.9,0,0,0-.5.21l.06.06.1.09C5.25,32.78,5.29,32.8,5.4,32.8Z"/><path class="cls-1" d="M8.06,34.78l.19,0,.14,0,.26-.1.23-.08c.07,0,.11-.06.11-.09s-.05,0-.13-.07l-.18-.06a1.21,1.21,0,0,0-.44-.13.79.79,0,0,0-.61.29.88.88,0,0,1,.24.12Z"/><path class="cls-1" d="M11.62,35.69l-.08,0-.17.11L11,36a.83.83,0,0,0-.43.66.78.78,0,0,0,.06.29c.08-.19.13-.23.4-.24s.6-.57.6-.94C11.65,35.72,11.64,35.69,11.62,35.69Z"/><path class="cls-1" d="M6.23,28.34c.08,0,.13-.15.17-.39l0-.17v0c0-.07,0-.1-.08-.1h0l-.14,0-.13,0H6c-.08,0-.12.05-.12.13a1.17,1.17,0,0,0,.22.52A.12.12,0,0,0,6.23,28.34Z"/><path class="cls-1" d="M25.66,33.24l-.77.23a1,1,0,0,0-.77,1,.59.59,0,0,1,.34-.14l.23,0,.2-.06a1,1,0,0,0,.13-.14l.21-.22c.07-.09.14-.14.18-.14a.07.07,0,0,1,.06.07.45.45,0,0,1-.09.2.63.63,0,0,0-.09.31.7.7,0,0,0,.2.46.42.42,0,0,1,.05-.14,2.35,2.35,0,0,1,.18-.25,1.31,1.31,0,0,0,.28-.54c0-.18,0-.24.07-.24s.05,0,.06.11a.16.16,0,0,0,0,.07s0,0,.07,0l.1,0a1.06,1.06,0,0,0,.19-.16.78.78,0,0,0,.12-.22.73.73,0,0,0,.06-.22v-.16s0-.07,0-.07.09.06.13.13.05.06.08.06h0a.12.12,0,0,0,.1,0,.69.69,0,0,0,.24-.45v-.22l-.05-.18h0a.07.07,0,0,1,.06-.07c.05,0,.11.08.19.25s.08.12.11.12.1,0,.22-.2l.1-.16a.16.16,0,0,0,0-.12.15.15,0,0,0,0-.11l-.09-.15a.17.17,0,0,1,0-.12,1.2,1.2,0,0,1,.18-.56,2.44,2.44,0,0,0,.16-.3c0-.05,0-.07.06-.07s0,0,0,.06v.32c0,.05.05.06.11.06l.12,0,.3-.11A1.58,1.58,0,0,0,29,31a1.58,1.58,0,0,1,.84-.31,1.38,1.38,0,0,1,.57.17l.12,0a.15.15,0,0,0,.11-.06.14.14,0,0,0,0-.09.22.22,0,0,0-.05-.14.89.89,0,0,1-.07-.18.05.05,0,0,1,.06-.06.17.17,0,0,1,.09.07l.27.47a1.38,1.38,0,0,0,.76.73l.53.12c.16,0,.2.1.2.3a1,1,0,0,1-.48.89l-.43.28a.8.8,0,0,0-.28.6,3.1,3.1,0,0,0,.08.62l.08-.09.21-.12.18-.18.09-.26.1-.24c0-.11.1-.19.14-.19s.06.07.06.18v.08a.89.89,0,0,0,.16.51l0-.14.05-.16a.84.84,0,0,1,.13-.2,1,1,0,0,0,.18-.6.44.44,0,0,0-.06-.23.3.3,0,0,1,0-.11.06.06,0,0,1,0,0,.05.05,0,0,1,.05,0h0a.19.19,0,0,1,.12.08c.05.06.09.1.12.1s.11-.09.14-.23l0-.12a1,1,0,0,0-.11-.33.24.24,0,0,1,0-.12.07.07,0,0,1,.07-.08.38.38,0,0,1,.16.1.14.14,0,0,0,.09,0c.07,0,.13-.08.18-.26a.81.81,0,0,0,.05-.19s0,0,0,0h-.18a1,1,0,0,1-.67-.32l-.34-.41a3.74,3.74,0,0,1-.3-.39l-.27-.18c-.05,0-.07-.06-.07-.1s0-.07.11-.07a3,3,0,0,1,.62.22,3.81,3.81,0,0,0,1.2.26,1,1,0,0,0,1.05-1,1.51,1.51,0,0,0-.48-1,.39.39,0,0,0-.22-.15s-.06,0-.06.07a.5.5,0,0,0,0,.14.2.2,0,0,1,0,.11c0,.05,0,.08-.06.08s-.15-.12-.22-.34-.23-.42-.6-.6a1,1,0,0,0-.37-.14s0,0,0,.05a.19.19,0,0,0,.05.14.68.68,0,0,1,.09.23h0c0,.05,0,.08-.06.08s-.1,0-.27-.29a1.38,1.38,0,0,0-.54-.41l-.2-.05h0s-.08,0-.08.05a.4.4,0,0,0,.06.11l0,.07a.06.06,0,0,1-.06.06,1.33,1.33,0,0,1-.47-.38,1.2,1.2,0,0,1-.31-.71.93.93,0,0,1,.92-.87.68.68,0,0,1,.31.07l.42.21.49.32a1.88,1.88,0,0,0,.9.33,1.51,1.51,0,0,0,.37-.08c.12,0,.19-.08.19-.12h0l0,0-.27,0a2.3,2.3,0,0,1-.74-.33l-.55-.36-.48-.2s-.07,0-.07-.06a.06.06,0,0,1,.06-.05l.14,0,.45.14a2.76,2.76,0,0,1,.55.25,2.59,2.59,0,0,0,1.06.38.46.46,0,0,0,.48-.45,1.55,1.55,0,0,0-.05-.34.41.41,0,0,0-.07-.15.12.12,0,0,0-.06,0s-.05,0-.05.1v.15c0,.22-.09.29-.33.29a3,3,0,0,1-1.07-.32,3.52,3.52,0,0,0-1.28-.31,1.68,1.68,0,0,0-1.69,1.57c0,.72.48,1.28,1.46,1.68l1,.42c.83.34,1.14.59,1.14.92s-.25.44-.64.44a2.47,2.47,0,0,1-.78-.17,7.08,7.08,0,0,0-2.11-.43,2.57,2.57,0,0,0-2,.78.19.19,0,0,1-.16.09.39.39,0,0,1-.17-.07.62.62,0,0,0-.26-.09.45.45,0,0,0-.29.16l-.12.16a.15.15,0,0,1-.1.07c-.09,0-.24-.15-.34-.32a1.22,1.22,0,0,1-.12-.31,2.77,2.77,0,0,1,0-.33v-.22l0-.24c0-.12,0-.18,0-.2a.06.06,0,0,1,.06,0c.06,0,.09.06.09.19v.12c0,.34.14.66.28.66s.22-.21.31-.63c0-.08.05-.13.09-.13s.08.06.11.24a1,1,0,0,0,.18.38c.05.06.1.1.14.1s.16-.15.21-.49c0-.13.06-.22.1-.22a.05.05,0,0,1,0,0l.09.13a.26.26,0,0,0,.13.12.36.36,0,0,0,.13,0,.21.21,0,0,0,.12,0c0-.05.08-.08.08-.1s0-.05-.07-.1a1.29,1.29,0,0,1-.22-.4l-.1-.27a.14.14,0,0,0-.06-.08h-.11l-.25.07h-.08s-.05,0-.05-.06a.24.24,0,0,1,.09-.13A1.74,1.74,0,0,0,29,27.24a1.27,1.27,0,0,1,.24-.71s.06-.07.07-.07.08,0,.08.11a.79.79,0,0,1,0,.17.32.32,0,0,0,0,.14v.05l0,.07.13-.05.14-.16a.87.87,0,0,0,.16-.49.39.39,0,0,0-.1-.28c-.07-.09-.12-.12-.18-.12h-.16c-.08,0-.12,0-.12-.07l0-.09v-.13l-.07-.3-.06-.15,0-.11-.09.06-.18.1a.79.79,0,0,0-.14.13c-.17.21-.18.22-.25.22s-.07,0-.07-.05v-.05a1.93,1.93,0,0,0,0-.24,1.16,1.16,0,0,0-.34-.7,1.07,1.07,0,0,0-.38.75v.15c0,.05,0,.08-.05.08h0a.16.16,0,0,1-.08-.06l-.15-.19a1,1,0,0,0-.19-.16L27.09,25l-.05.1a1.23,1.23,0,0,0-.17.57c0,.16,0,.2-.05.2l-.08,0c-.18-.1-.2-.11-.27-.11a.35.35,0,0,0-.37.38.88.88,0,0,0,.15.39c.11.2.28.38.35.38s0,0,0-.08v-.22l0-.16v0c0-.05,0-.07.06-.07s.2.32.28.95a1.82,1.82,0,0,0,.47,1.16.21.21,0,0,1,.09.13,0,0,0,0,1,0,0,.54.54,0,0,1-.16-.06.24.24,0,0,0-.13,0c-.12,0-.25.14-.28.29l-.1.68-.09.95a3,3,0,0,0,.07.72,2.69,2.69,0,0,1,.09.56A1.54,1.54,0,0,1,25.66,33.24Zm2.49-6.85a.12.12,0,0,1,.1-.13l.26-.07.26-.13.11,0a.07.07,0,0,1,.06.07.13.13,0,0,1,0,.07l-.12.2-.27.28a.91.91,0,0,0-.12.26.2.2,0,0,1-.08,0h0a.13.13,0,0,1-.13-.12V26.4Zm-1-.41s0-.05.06-.05h0l.17.11a1.47,1.47,0,0,0,.24.13c.18.07.25.1.25.17a.93.93,0,0,1,0,.14.94.94,0,0,0,0,.16c0,.17-.12.21-.18.21s-.17-.13-.3-.36a3.2,3.2,0,0,1-.19-.48Zm.19,1.38c0-.13.07-.22.16-.22a.19.19,0,0,1,.14,0l.18.13a.38.38,0,0,0,.16,0,.71.71,0,0,0,.28-.08l.15-.07.1,0a.2.2,0,0,1,.17.22,1.27,1.27,0,0,1-.31.62l-.13.28c-.11.15-.18.2-.26.2s-.21-.08-.43-.5A1.54,1.54,0,0,1,27.29,27.36Z"/><path class="cls-1" d="M30.46,31.35a.3.3,0,0,0-.14,0l-.09,0a.15.15,0,0,1-.08-.05l-.08-.1L30,31.19a.11.11,0,0,0-.1-.06l-.09,0h-.11c-.12,0-.17.05-.17.17v.13a.64.64,0,0,1-.22.37l-.23.2a1.45,1.45,0,0,0-.49.92,2,2,0,0,0,.1.52,2.27,2.27,0,0,1,.14.64c0,.57-.87,1.32-2.49,2.15-.82.41-1,.66-1,1.23l0,.21c.14-.13.16-.14.57-.23a.61.61,0,0,0,.55-.53.46.46,0,0,1,.3-.41.65.65,0,0,0,.15-.12l.06,0a0,0,0,0,1,0,.05.53.53,0,0,1-.08.2.43.43,0,0,0,0,.22.8.8,0,0,0,.14.48.68.68,0,0,1,.3-.34c.23-.16.32-.35.37-.78,0-.18.05-.28.1-.28a.07.07,0,0,1,.05,0l.09.18a.08.08,0,0,0,.07,0,.27.27,0,0,0,.15-.09l.17-.15a.86.86,0,0,0,.14-.51c0-.1.05-.16.09-.16a.07.07,0,0,1,.06.06l.07.24s.05.09.08.09,0,0,.1-.06a.69.69,0,0,0,.16-.18.38.38,0,0,0,.09-.24V35a.22.22,0,0,1,0-.13l.06-.05a.07.07,0,0,1,.06.06l.05.13a.14.14,0,0,0,.11.1c.07,0,.13-.06.23-.19a.86.86,0,0,1,.07-.1.31.31,0,0,0,.08-.15.21.21,0,0,0,0-.09,1.31,1.31,0,0,1-.26-.81,2.23,2.23,0,0,1,.61-1.35,1.87,1.87,0,0,0,.43-.95C30.56,31.38,30.53,31.35,30.46,31.35Z"/><path class="cls-1" d="M24.49,27.74c.21.19.23.22.23.29a.09.09,0,0,1-.08.09h-.13c-.06,0-.12.12-.12.26a1.05,1.05,0,0,0,.07.3.33.33,0,0,0,.09.14l.12.12a.17.17,0,0,1,0,.12c0,.06,0,.11-.07.11a.24.24,0,0,1-.11,0l-.08,0c-.05,0-.08,0-.08.1l0,.17.07.31a.6.6,0,0,0,.13.23.63.63,0,0,0,.18.14l.24.11a.13.13,0,0,1,0,.1.09.09,0,0,1-.08.08l-.13,0h-.12c-.12,0-.13,0-.13.1a.63.63,0,0,0,0,.19l.05.19c0,.2.11.31.18.31a.21.21,0,0,0,.09,0,1.49,1.49,0,0,1,.74-.25,2.46,2.46,0,0,1,.57.06l.12,0s0,0,0-.14l0-.21.05-.37,0-.27v-.16l-.09.08a.7.7,0,0,1-.54.25c-.55,0-.87-.61-.87-1.69a11.87,11.87,0,0,1,.19-1.79,1.77,1.77,0,0,0,0-.33,1.3,1.3,0,0,0-.68-1v.29a.81.81,0,0,1,0,.2,1.66,1.66,0,0,0,0,.27,1,1,0,0,0,.16.57.85.85,0,0,1,.13.4s0,.08-.06.08a.05.05,0,0,1,0,0l-.1-.13c-.08-.1-.15-.13-.34-.13H24a2.54,2.54,0,0,1,.14.42C24.26,27.52,24.28,27.55,24.49,27.74Z"/><path class="cls-1" d="M25.58,27.66a.57.57,0,0,0,.16-.37.35.35,0,0,0,0-.17c0-.09-.12-.17-.17-.17s-.07.1-.09.25l0,.18,0,.18v.3l.11-.11Z"/><path class="cls-1" d="M24.59,33a.51.51,0,0,0,.48.24l.17,0,.15-.05.12,0c.06,0,.1,0,.1-.06a1,1,0,0,0-.24-.2l-.29-.17a.6.6,0,0,0-.27-.07.84.84,0,0,0-.49.16C24.44,32.78,24.47,32.8,24.59,33Z"/><path class="cls-1" d="M26.47,36l.34-.19c.22-.12.33-.2.33-.26s-.14-.13-.37-.13a.79.79,0,0,0-.84.71v.13A5.11,5.11,0,0,0,26.47,36Z"/><path class="cls-1" d="M31.45,33l.17-.12c.24-.17.25-.18.25-.23s-.1-.1-.3-.1c-.37,0-.6.18-.78.61a2.87,2.87,0,0,1,.31-.08h.21Z"/><path class="cls-1" d="M27.76,28.05c0,.1.09.21.17.21s.19-.17.23-.42,0-.14,0-.17,0-.11-.14-.11h-.2c-.08,0-.11.06-.11.21v.05Z"/><path class="cls-1" d="M15.6,18.63a.31.31,0,1,0-.31-.31A.31.31,0,0,0,15.6,18.63Z"/><path class="cls-1" d="M21.55,18.63a.31.31,0,1,0-.31-.31A.31.31,0,0,0,21.55,18.63Z"/><path class="cls-1" d="M15.61,21.46a.3.3,0,0,0,.3-.31.31.31,0,1,0-.3.31Z"/><path class="cls-1" d="M21.55,21.46a.31.31,0,1,0-.31-.31A.31.31,0,0,0,21.55,21.46Z"/><path class="cls-1" d="M20.36,19.69a2.4,2.4,0,0,0-3.63,0,2.3,2.3,0,0,0,1.87.92A2.15,2.15,0,0,0,20.36,19.69Zm-3.27,0a2.23,2.23,0,0,1,1.46-.55A2.13,2.13,0,0,1,20,19.7a1.84,1.84,0,0,1-1.45.62A2,2,0,0,1,17.09,19.69Z"/><path class="cls-1" d="M18.54,19.37a1.86,1.86,0,0,0-.84.2,1.47,1.47,0,0,0,1.7,0A2,2,0,0,0,18.54,19.37Z"/><path class="cls-1" d="M16.55,17.29v-.58c0-.28-.12-.46-.3-.46a.48.48,0,0,0-.15,0l-.08.05a.22.22,0,0,0-.07.09.47.47,0,0,0,0,.14v.74h0v.12a.32.32,0,0,0,.32.32.3.3,0,0,0,.33-.32v-.12h0Z"/><path class="cls-1" d="M18.89,17.29v-.58c0-.28-.11-.46-.29-.46s-.36.17-.36.45v.61h0v.12a.32.32,0,0,0,.33.32.29.29,0,0,0,.32-.32v-.12h0Z"/><path class="cls-1" d="M21.17,17.29v-.58c0-.28-.12-.46-.3-.46a.48.48,0,0,0-.15,0s-.07,0-.08.05a.22.22,0,0,0-.07.09.47.47,0,0,0-.05.14v.74h0v.12a.32.32,0,0,0,.32.32.3.3,0,0,0,.33-.32v-.12h0Z"/><rect class="cls-1" x="15.73" y="22.99" width="0.71" height="0.91"/><rect class="cls-1" x="15.73" y="24.11" width="0.71" height="0.29"/><rect class="cls-1" x="20.57" y="22.99" width="0.71" height="0.91"/><rect class="cls-1" x="20.57" y="24.11" width="0.71" height="0.29"/></svg>